<svg width="22" height="20" viewBox="0 0 22 20" fill="none" xmlns="http://www.w3.org/2000/svg">
<path fill-rule="evenodd" clip-rule="evenodd" d="M3.88952 3.05023C4.05513 2.83466 4.31154 2.70831 4.58338 2.70831H13.9167C14.4 2.70831 14.7917 3.10006 14.7917 3.58331C14.7917 4.06656 14.4 4.45831 13.9167 4.45831H5.72229L7.58896 11.4583H17.9111L19.7778 4.45831H18.5834C18.1001 4.45831 17.7084 4.06656 17.7084 3.58331C17.7084 3.10006 18.1001 2.70831 18.5834 2.70831H20.9167C21.1886 2.70831 21.445 2.83466 21.6106 3.05023C21.7762 3.2658 21.8322 3.5461 21.7622 3.80877L19.4288 12.5588C19.3267 12.9418 18.9798 13.2083 18.5834 13.2083H6.91672C6.5203 13.2083 6.1734 12.9418 6.07126 12.5588L3.73793 3.80877C3.66788 3.5461 3.7239 3.2658 3.88952 3.05023Z" fill="#2F80ED"/>
<path fill-rule="evenodd" clip-rule="evenodd" d="M0.208374 1.25C0.208374 0.766751 0.600125 0.375 1.08337 0.375H4.00004C4.40155 0.375 4.75153 0.64826 4.84892 1.03778L5.43225 3.37111C5.54945 3.83994 5.26441 4.315 4.79559 4.43221C4.32677 4.54941 3.8517 4.26437 3.7345 3.79555L3.31686 2.125H1.08337C0.600125 2.125 0.208374 1.73325 0.208374 1.25Z" fill="#2F80ED"/>
<path fill-rule="evenodd" clip-rule="evenodd" d="M7.5 16.125C7.01675 16.125 6.625 16.5168 6.625 17C6.625 17.4832 7.01675 17.875 7.5 17.875C7.98325 17.875 8.375 17.4832 8.375 17C8.375 16.5168 7.98325 16.125 7.5 16.125ZM4.875 17C4.875 15.5503 6.05025 14.375 7.5 14.375C8.94975 14.375 10.125 15.5503 10.125 17C10.125 18.4497 8.94975 19.625 7.5 19.625C6.05025 19.625 4.875 18.4497 4.875 17Z" fill="#2F80ED"/>
<path fill-rule="evenodd" clip-rule="evenodd" d="M18 16.125C17.5168 16.125 17.125 16.5168 17.125 17C17.125 17.4832 17.5168 17.875 18 17.875C18.4832 17.875 18.875 17.4832 18.875 17C18.875 16.5168 18.4832 16.125 18 16.125ZM15.375 17C15.375 15.5503 16.5503 14.375 18 14.375C19.4497 14.375 20.625 15.5503 20.625 17C20.625 18.4497 19.4497 19.625 18 19.625C16.5503 19.625 15.375 18.4497 15.375 17Z" fill="#2F80ED"/>
</svg>
