<svg width="24" height="24" viewBox="0 0 24 24" fill="none" xmlns="http://www.w3.org/2000/svg">
<path fill-rule="evenodd" clip-rule="evenodd" d="M7.96967 9.71967C7.67678 10.0126 7.67678 10.4874 7.96967 10.7803L11.4697 14.2803C11.7626 14.5732 12.2374 14.5732 12.5303 14.2803L14.2803 12.5303C14.5732 12.2374 14.5732 11.7626 14.2803 11.4697C13.9874 11.1768 13.5126 11.1768 13.2197 11.4697L12 12.6893L9.03033 9.71967C8.73744 9.42678 8.26256 9.42678 7.96967 9.71967ZM14.5322 11.2178C14.8251 11.5107 15.2999 11.5107 15.5928 11.2178L16.0303 10.7803C16.3232 10.4874 16.3232 10.0126 16.0303 9.71967C15.7374 9.42678 15.2626 9.42678 14.9697 9.71967L14.5322 10.1572C14.2393 10.4501 14.2393 10.9249 14.5322 11.2178Z" fill="#2F80ED"/>
</svg>
