<svg width="22" height="19" viewBox="0 0 22 19" fill="none" xmlns="http://www.w3.org/2000/svg">
<path fill-rule="evenodd" clip-rule="evenodd" d="M0.75 9.5C0.75 9.08579 1.08579 8.75 1.5 8.75H13.5C13.9142 8.75 14.25 9.08579 14.25 9.5C14.25 9.91421 13.9142 10.25 13.5 10.25H1.5C1.08579 10.25 0.75 9.91421 0.75 9.5Z" fill="#2F80ED"/>
<path fill-rule="evenodd" clip-rule="evenodd" d="M9.46967 5.46967C9.76256 5.17678 10.2374 5.17678 10.5303 5.46967L14.0303 8.96967C14.3232 9.26256 14.3232 9.73744 14.0303 10.0303L10.5303 13.5303C10.2374 13.8232 9.76256 13.8232 9.46967 13.5303C9.17678 13.2374 9.17678 12.7626 9.46967 12.4697L12.4393 9.5L9.46967 6.53033C9.17678 6.23744 9.17678 5.76256 9.46967 5.46967Z" fill="#2F80ED"/>
<path fill-rule="evenodd" clip-rule="evenodd" d="M12.5 2.25C9.68497 2.25 7.24333 3.8542 6.04177 6.20176C5.85304 6.57048 5.40114 6.7164 5.03242 6.52768C4.6637 6.33895 4.51778 5.88705 4.70651 5.51833C6.15456 2.68917 9.10017 0.75 12.5 0.75C13.8715 0.75 15.1712 1.06607 16.3285 1.63002C16.7009 1.81147 16.8557 2.26042 16.6742 2.63278C16.4928 3.00513 16.0438 3.15989 15.6714 2.97844C14.7144 2.51205 13.6388 2.25 12.5 2.25ZM19.0542 4.8508C19.4127 4.64339 19.8715 4.76591 20.0789 5.12446C20.8239 6.41223 21.25 7.90749 21.25 9.5C21.25 14.3325 17.3325 18.25 12.5 18.25C9.10017 18.25 6.15456 16.3108 4.70651 13.4817C4.51778 13.1129 4.6637 12.661 5.03242 12.4723C5.40114 12.2836 5.85304 12.4295 6.04177 12.7982C7.24333 15.1458 9.68497 16.75 12.5 16.75C16.5041 16.75 19.75 13.5041 19.75 9.5C19.75 8.17821 19.397 6.94116 18.7805 5.87554C18.5731 5.517 18.6956 5.0582 19.0542 4.8508Z" fill="#2F80ED"/>
</svg>
