<svg width="20" height="21" viewBox="0 0 20 21" fill="none" xmlns="http://www.w3.org/2000/svg">
<path fill-rule="evenodd" clip-rule="evenodd" d="M10 2.25C5.44365 2.25 1.75 5.94365 1.75 10.5C1.75 15.0563 5.44365 18.75 10 18.75C14.5563 18.75 18.25 15.0563 18.25 10.5C18.25 8.5346 17.5637 6.73154 16.417 5.31445C16.1564 4.99245 16.2062 4.5202 16.5282 4.25964C16.8502 3.99908 17.3225 4.04888 17.583 4.37088C18.9379 6.04525 19.75 8.1788 19.75 10.5C19.75 15.8848 15.3848 20.25 10 20.25C4.61522 20.25 0.25 15.8848 0.25 10.5C0.25 5.11522 4.61522 0.75 10 0.75C11.1382 0.75 12.2324 0.945355 13.2499 1.30499C13.6405 1.44302 13.8452 1.87151 13.7071 2.26205C13.5691 2.65259 13.1406 2.85728 12.7501 2.71925C11.8909 2.41557 10.9656 2.25 10 2.25Z" fill="#2F80ED"/>
<path fill-rule="evenodd" clip-rule="evenodd" d="M10 6.25C8.75736 6.25 7.75 7.25736 7.75 8.5C7.75 9.74264 8.75736 10.75 10 10.75C11.2426 10.75 12.25 9.74264 12.25 8.5C12.25 7.25736 11.2426 6.25 10 6.25ZM6.25 8.5C6.25 6.42893 7.92893 4.75 10 4.75C12.0711 4.75 13.75 6.42893 13.75 8.5C13.75 10.5711 12.0711 12.25 10 12.25C7.92893 12.25 6.25 10.5711 6.25 8.5Z" fill="#2F80ED"/>
<path fill-rule="evenodd" clip-rule="evenodd" d="M10 14.75C7.77444 14.75 5.8199 15.9127 4.71156 17.6674C4.49035 18.0176 4.02713 18.1222 3.67693 17.901C3.32673 17.6798 3.22216 17.2166 3.44336 16.8664C4.81496 14.6949 7.23848 13.25 10 13.25C12.7615 13.25 15.185 14.6949 16.5566 16.8664C16.7778 17.2166 16.6733 17.6798 16.3231 17.901C15.9729 18.1222 15.5097 18.0176 15.2884 17.6674C14.1801 15.9127 12.2256 14.75 10 14.75Z" fill="#2F80ED"/>
</svg>
